Coordinates
version=1
nRows=38
nColumns=12
inDegrees=yes

Units are S.I. units (second, meters, Newtons, ...)
Angles are in degrees

endheader
time	SC_y	SC_z	SC_x	AC_y	AC_z	AC_x	GH_y	GH_z	GH_yy	EL_x	PS_y
       0.0              -30.94          2.821          47.46          66.64         -3.249         -13.08          135.5           87.0         -58.49          57.13          50.04
   0.03265              -30.94          2.821          47.46          66.64         -3.251         -13.08          135.5           87.0         -58.47          57.13          50.05
    0.0653              -30.94          2.821          47.47          66.64         -3.252         -13.07          135.5          86.99         -58.45          57.12          50.07
   0.09795              -30.94          2.821          47.47          66.63         -3.254         -13.07          135.4          86.99         -58.42          57.12          50.08
    0.1306              -30.94          2.822          47.47          66.63         -3.256         -13.06          135.4          86.98          -58.4          57.11           50.1
    0.1632              -30.94          2.822          47.47          66.63         -3.258         -13.06          135.4          86.97         -58.37           57.1          50.12
    0.1959              -30.94          2.822          47.48          66.62          -3.26         -13.05          135.4          86.97         -58.35          57.09          50.14
    0.2285              -30.94          2.822          47.48          66.62         -3.263         -13.05          135.4          86.96         -58.32          57.09          50.16
    0.2612              -30.95          2.822          47.49          66.62         -3.265         -13.04          135.3          86.95         -58.28          57.08          50.18
    0.2938              -30.95          2.823          47.49          66.61         -3.268         -13.04          135.3          86.94         -58.25          57.07          50.21
    0.3265              -30.95          2.823          47.49          66.61         -3.271         -13.03          135.3          86.93         -58.21          57.06          50.23
    0.3591              -30.95          2.823           47.5           66.6         -3.274         -13.02          135.3          86.92         -58.17          57.05          50.26
    0.3918              -30.95          2.824           47.5          66.59         -3.277         -13.01          135.2          86.91         -58.13          57.04          50.29
    0.4244              -30.95          2.824          47.51          66.59         -3.281          -13.0          135.2          86.89         -58.08          57.02          50.33
    0.4571              -30.95          2.824          47.52          66.58         -3.284          -13.0          135.1          86.88         -58.03          57.01          50.36
    0.4897              -30.96          2.825          47.52          66.57         -3.289         -12.99          135.1          86.87         -57.98           57.0           50.4
    0.5224              -30.96          2.825          47.53          66.57         -3.293         -12.97          135.1          86.85         -57.92          56.98          50.44
     0.555              -30.96          2.826          47.54          66.56         -3.298         -12.96          135.0          86.83         -57.86          56.96          50.49
    0.5877              -30.96          2.826          47.55          66.55         -3.304         -12.95          135.0          86.81         -57.79          56.94          50.54
    0.6203              -30.97          2.827          47.55          66.54          -3.31         -12.93          134.9          86.79         -57.71          56.92           50.6
     0.653              -30.97          2.828          47.57          66.53         -3.316         -12.92          134.8          86.77         -57.63           56.9          50.66
    0.6856              -30.97          2.828          47.58          66.51         -3.323          -12.9          134.8          86.74         -57.53          56.87          50.72
    0.7183              -30.98          2.829          47.59           66.5         -3.331         -12.88          134.7          86.72         -57.43          56.85           50.8
    0.7509              -30.98           2.83           47.6          66.49          -3.34         -12.86          134.6          86.69         -57.32          56.82          50.88
    0.7836              -30.99          2.831          47.62          66.47          -3.35         -12.84          134.5          86.65         -57.19          56.78          50.97
    0.8162              -30.99          2.832          47.63          66.45         -3.361         -12.81          134.4          86.61         -57.05          56.74          51.07
    0.8489               -31.0          2.834          47.65          66.43         -3.373         -12.78          134.3          86.57         -56.89           56.7          51.18
    0.8815               -31.0          2.835          47.68           66.4         -3.387         -12.75          134.2          86.52         -56.72          56.65          51.31
    0.9142              -31.01          2.837           47.7          66.38         -3.403         -12.71          134.0          86.47         -56.52           56.6          51.45
    0.9468              -31.02          2.838          47.73          66.35         -3.421         -12.67          133.8          86.41         -56.29          56.54          51.62
    0.9795              -31.03           2.84          47.76          66.31         -3.441         -12.62          133.6          86.33         -56.03          56.47           51.8
     1.012              -31.04          2.843           47.8          66.27         -3.464         -12.56          133.4          86.25         -55.73          56.39          52.02
     1.045              -31.05          2.846          47.84          66.23         -3.491          -12.5          133.2          86.16         -55.39          56.29          52.26
     1.077              -31.07          2.849          47.89          66.17         -3.522         -12.42          132.8          86.05         -54.99          56.19          52.55
      1.11              -31.08          2.852          47.94          66.11         -3.558         -12.33          132.5          85.92         -54.52          56.06          52.89
     1.143              -31.11          2.857          48.01          66.04         -3.601         -12.23          132.1          85.77         -53.97          55.91          53.28
     1.175              -31.13          2.862          48.09          65.95         -3.652          -12.1          131.6          85.59         -53.32          55.73          53.76
     1.208              -31.16          2.868          48.18          65.84         -3.714         -11.96          131.0          85.38         -52.53          55.52          54.32
